<svg xmlns="http://www.w3.org/2000/svg" width="50" height="50" viewBox="0 0 50 50">
  <g id="instagram" transform="translate(1269 -13260)">
    <rect id="Rectangle_45" data-name="Rectangle 45" width="50" height="50" transform="translate(-1269 13260)" fill="none"/>
    <path id="instagram-2" data-name="instagram" d="M16.66,3c4.443,0,4.976.017,6.733.1,4.515.205,6.624,2.348,6.829,6.829.081,1.756.1,2.284.1,6.732s-.017,4.976-.1,6.732c-.207,4.477-2.31,6.624-6.829,6.829-1.758.081-2.282.1-6.733.1s-4.976-.017-6.732-.1C5.4,30.016,3.3,27.863,3.1,23.392,3.018,21.636,3,21.11,3,16.66s.018-4.974.1-6.732C3.306,5.448,5.415,3.3,9.928,3.1,11.686,3.02,12.217,3,16.66,3Zm0-3c-4.525,0-5.091.019-6.868.1C3.749.378.379,3.735.1,9.791.019,11.569,0,12.136,0,16.66s.019,5.092.1,6.87c.278,6.05,3.635,9.413,9.691,9.691,1.778.081,2.345.1,6.87.1s5.092-.019,6.87-.1c6.045-.278,9.416-3.635,9.689-9.691.082-1.777.1-2.345.1-6.87s-.019-5.091-.1-6.868C32.943,3.747,29.587.379,23.531.1,21.753.019,21.185,0,16.66,0Zm0,8.105a8.556,8.556,0,1,0,8.555,8.555A8.557,8.557,0,0,0,16.66,8.105Zm0,14.108a5.553,5.553,0,1,1,5.553-5.553A5.553,5.553,0,0,1,16.66,22.214ZM25.554,5.769a2,2,0,1,0,2,2,2,2,0,0,0-2-2Z" transform="translate(-1261 13268)" fill="#fff"/>
  </g>
</svg>
