<svg xmlns="http://www.w3.org/2000/svg" width="50" height="50" viewBox="0 0 50 50">
  <g id="twitter" transform="translate(1350 -13260)">
    <rect id="Rectangle_45" data-name="Rectangle 45" width="50" height="50" transform="translate(-1350 13260)" fill="none"/>
    <path id="Forma_1" data-name="Forma 1" d="M1461.748,8031.3a12.619,12.619,0,0,1-3.861,1.1,6.818,6.818,0,0,0,2.948-3.908,13.248,13.248,0,0,1-4.259,1.732,6.315,6.315,0,0,0-4.914-2.246,6.2,6.2,0,0,0-4.727,2.084,6.992,6.992,0,0,0-1.966,5.008,7.573,7.573,0,0,0,.164,1.613,17.884,17.884,0,0,1-7.723-2.176,19.321,19.321,0,0,1-6.107-5.242,7.554,7.554,0,0,0-.116,6.973,7.169,7.169,0,0,0,2.2,2.527,6.3,6.3,0,0,1-3.042-.912v.094a7.2,7.2,0,0,0,1.521,4.516,6.6,6.6,0,0,0,3.862,2.434,6.607,6.607,0,0,1-1.779.258,8.836,8.836,0,0,1-1.263-.119,7.019,7.019,0,0,0,2.364,3.514,6.341,6.341,0,0,0,3.908,1.4,12.566,12.566,0,0,1-8.331,3.041,11.439,11.439,0,0,1-1.615-.092,17.842,17.842,0,0,0,10.3,3.184,18.683,18.683,0,0,0,6.716-1.193,16.858,16.858,0,0,0,5.36-3.205,21.07,21.07,0,0,0,3.837-4.635,20.436,20.436,0,0,0,2.387-5.451,20.748,20.748,0,0,0,.795-5.689c0-.422,0-.725-.023-.936a14.462,14.462,0,0,0,3.37-3.674Z" transform="translate(-2771.01 5242.019)" fill="#fff" fill-rule="evenodd"/>
  </g>
</svg>
