<svg xmlns="http://www.w3.org/2000/svg" width="512" height="512" viewBox="0 0 512 512">
  <path id="dotdotdot" d="M256,0C114.52,0,0,114.5,0,256A255.41,255.41,0,0,0,34,383.44L1,485.87A20,20,0,0,0,26.13,511l102.43-33A255.41,255.41,0,0,0,256,512c141.48,0,256-114.5,256-256S397.5,0,256,0Zm0,472a215.37,215.37,0,0,1-114.33-32.73,20,20,0,0,0-16.74-2.07L51,461l23.8-73.93a20,20,0,0,0-2.08-16.74A215.45,215.45,0,0,1,40,256C40,136.9,136.9,40,256,40s216,96.9,216,216S375.1,472,256,472Zm25-216a25,25,0,1,1-25-25A25,25,0,0,1,281,256Zm100,0a25,25,0,1,1-25-25A25,25,0,0,1,381,256Zm-200,0a25,25,0,1,1-25-25A25,25,0,0,1,181,256Z" fill="#fff"/>
</svg>
