<svg xmlns="http://www.w3.org/2000/svg" width="135.569" height="49.62" viewBox="0 0 135.569 49.62">
  <g id="Group_55" data-name="Group 55" transform="translate(-9137 -10521)">
    <g id="工作區域_1" data-name="工作區域 1" transform="translate(8906.51 10372.62)" style="isolation: isolate">
      <path id="Path_8" data-name="Path 8" d="M231.57,161a.9.9,0,0,0,.57-.27.7.7,0,0,0,.14-.46,3.992,3.992,0,0,0-.09-.9l-.69-5a7.6,7.6,0,0,1-.09-.94l-.85.16-.07-.52,2.68-.39a4,4,0,0,1,2.23.2,1.67,1.67,0,0,1,1,1.39,1.76,1.76,0,0,1-.35,1.25,2.5,2.5,0,0,1-1.36.9h0a3,3,0,0,1,2,.31,2,2,0,0,1,.9,1.44,2.14,2.14,0,0,1-.2,1.29,2.26,2.26,0,0,1-.89.95,3.68,3.68,0,0,1-1.4.48l-3.47.47Zm2.15-4.56a1.75,1.75,0,0,0,1.3-.7,1.91,1.91,0,0,0,.26-1.3,1.38,1.38,0,0,0-.69-1.17,2.23,2.23,0,0,0-1.3-.17,1.31,1.31,0,0,0-.56.18.62.62,0,0,0-.21.38,2.67,2.67,0,0,0,0,.71l.3,2.22Zm2.35,3.41a2,2,0,0,0-.39-2.78,2.4,2.4,0,0,0-1.54-.22c-.43.06-.84.12-1.22.2l.37,2.69a7,7,0,0,1,.09.93,3.465,3.465,0,0,0,.86-.1h.4a2.27,2.27,0,0,0,1.43-.75Z" fill="#656565"/>
      <path id="Path_9" data-name="Path 9" d="M238.84,160a.81.81,0,0,0,.57-.27.66.66,0,0,0,.16-.44,4.145,4.145,0,0,0-.08-.86l-.62-5.14a7.622,7.622,0,0,1-.06-.87l-.86.15-.06-.52,5.73-.69.31,2.08h-.39a1.7,1.7,0,0,0-.58-1.28,1.72,1.72,0,0,0-1.23-.2l-1,.15a1.06,1.06,0,0,0-.6.23.66.66,0,0,0-.19.45,6.205,6.205,0,0,0,.05.85l.23,1.9,2.24-.25-.2-1,.52-.06.3,2.5-.39.05a1.68,1.68,0,0,0-.19-.66.53.53,0,0,0-.37-.27,1.77,1.77,0,0,0-.62,0l-.37.06-.86.14.32,2.73a8.658,8.658,0,0,1,.08.93l2.27-.31a1.55,1.55,0,0,0,1.49-2l.41-.05.21,2.34-6.15.73Z" fill="#656565"/>
      <path id="Path_10" data-name="Path 10" d="M245.51,159.19A.72.72,0,0,0,246,159a1,1,0,0,0,.26-.39,6.607,6.607,0,0,0,.2-.69l.08-.34,1.78-7h.28l3.36,6.52a5.353,5.353,0,0,1,.3.68,2.169,2.169,0,0,1,.15.6l.8-.13.06.53-2.74.28v-.4c.47-.05.69-.27.65-.64a1.93,1.93,0,0,0-.18-.55l-.53-1.08-3.1.39c-.08.34-.18.78-.29,1.32a8.071,8.071,0,0,1-.21.85l.93-.14.05.52-2.23.23Zm4.68-3.21-1.08-2.19-.69-1.41h0l-.36,1.4-.46,1.88-.14.61Z" fill="#656565"/>
      <path id="Path_11" data-name="Path 11" d="M255.34,158.36a2.56,2.56,0,0,1-1.17-1.29,8,8,0,0,1-.52-2.41l-.2-2.43c0-.51-.07-1-.07-1.39l-.86.11v-.52l2.67-.22v.39a.649.649,0,0,0-.65.33,1.46,1.46,0,0,0-.09.68l.26,3a8.2,8.2,0,0,0,.33,1.78,2.38,2.38,0,0,0,.84,1.18,2.27,2.27,0,0,0,1.6.35,2.09,2.09,0,0,0,1.78-1,4.16,4.16,0,0,0,.43-2.37l-.25-3.37v-.86l-.84.12-.05-.53,2.23-.19v.4a.88.88,0,0,0-.59.24.67.67,0,0,0-.17.44,6.584,6.584,0,0,0,.05.86l.21,2.78a5,5,0,0,1-.53,2.89,2.8,2.8,0,0,1-2.36,1.3A3.85,3.85,0,0,1,255.34,158.36Z" fill="#656565"/>
      <path id="Path_12" data-name="Path 12" d="M264.24,157.52a.659.659,0,0,0,.64-.33,1.72,1.72,0,0,0,.1-.82V156l-.39-6.08-1.24.1a1.16,1.16,0,0,0-1,.56,3,3,0,0,0-.22,1.6h-.44l-.1-2.53,7-.46.23,2.52h-.45a4.641,4.641,0,0,0-.23-1.2,1.23,1.23,0,0,0-.51-.64,1.71,1.71,0,0,0-1-.15l-1,.06.42,6.53v.95l1-.12v.53l-2.82.19Z" fill="#656565"/>
      <path id="Path_13" data-name="Path 13" d="M270.07,157.15a.85.85,0,0,0,.59-.22.72.72,0,0,0,.18-.44v-.85l-.27-5.18v-.86l-.86.09v-.53l2.69-.14v.39a.9.9,0,0,0-.59.23.69.69,0,0,0-.18.43v.86l.27,5.09v.95l.86-.09v.53l-2.69.14Z" fill="#656565"/>
      <path id="Path_14" data-name="Path 14" d="M274.05,156.94a.85.85,0,0,0,.59-.22.69.69,0,0,0,.18-.43c0-.17,0-.45,0-.86l-.22-5.18a6.123,6.123,0,0,1,0-.86l-.86.08v-.53l5.57-.23.15,2.09h-.4a1.67,1.67,0,0,0-.5-1.33,1.83,1.83,0,0,0-1.23-.28l-.87.06a.85.85,0,0,0-.59.22.7.7,0,0,0-.18.45,8.266,8.266,0,0,0,0,.84l.08,2.06,2.09-.07-.13-1h.53l.11,2.52h-.39a1.63,1.63,0,0,0-.13-.68.54.54,0,0,0-.33-.3,1.74,1.74,0,0,0-.6-.05,2.151,2.151,0,0,0-.41,0l-.72.06.11,2.52v.95l1.22-.1v.53l-3.06.13Z" fill="#656565"/>
      <path id="Path_15" data-name="Path 15" d="M282.52,156.75a2.47,2.47,0,0,1-1.09-1.35A7.829,7.829,0,0,1,281,153l-.06-2.43v-1.4l-.87.06v-.51l2.69-.07V149a.69.69,0,0,0-.67.3,1.39,1.39,0,0,0-.12.67l.08,3a8.138,8.138,0,0,0,.23,1.8,2.39,2.39,0,0,0,.77,1.23,2.29,2.29,0,0,0,1.58.45,2.15,2.15,0,0,0,1.83-.91,4.17,4.17,0,0,0,.57-2.35l-.06-3.37v-.87l-.85.07v-.52l2.23-.06v.39a.93.93,0,0,0-.61.21.7.7,0,0,0-.19.43v.86l.05,2.78A4.94,4.94,0,0,1,287,156a2.75,2.75,0,0,1-2.42,1.16,3.84,3.84,0,0,1-2.06-.41Z" fill="#656565"/>
      <path id="Path_16" data-name="Path 16" d="M289.59,156.44a.87.87,0,0,0,.6-.2.64.64,0,0,0,.2-.43v-6.9l-.87.05v-.52h2.7v.39a.87.87,0,0,0-.6.2.78.78,0,0,0-.2.43v.86l.05,5.15a8.193,8.193,0,0,1,0,.93l2.24-.06a1.42,1.42,0,0,0,1.15-.5,2.44,2.44,0,0,0,.37-1.52h.4v2.48l-5.95.07Z" fill="#656565"/>
      <path id="Path_17" data-name="Path 17" d="M303.5,155.43c-.58-1.36-1-2.43-1.37-3.22s-.64-1.61-.95-2.48v.53c-.1,2.35-.17,4-.2,5a1.782,1.782,0,0,1,0,.26,3.734,3.734,0,0,1-.05.76h.9v.53h-2.29v-.4a.71.71,0,0,0,.66-.27,2,2,0,0,0,.18-.82l.35-6.42h-.86v-.52h1.83l1.58,3.79c.57,1.4,1,2.46,1.32,3.18h0l.63-1.54c.32-.76.68-1.6,1.08-2.51.47-1.07.88-2,1.22-2.84h1.77v.4a.76.76,0,0,0-.64.22,1.33,1.33,0,0,0-.22.83v.24l.24,5.47v.74h.88v.53h-2.69v-.4a.73.73,0,0,0,.64-.26,1.62,1.62,0,0,0,.18-.81,3.143,3.143,0,0,0,0-.34l-.24-5.12-.07.15c0,.07-.06.14-.09.23L304.52,157h-.36Z" fill="#656565"/>
      <path id="Path_18" data-name="Path 18" d="M312.32,156.55a3.89,3.89,0,0,1-1.35-1.69,5.17,5.17,0,0,1-.39-2.13,4.91,4.91,0,0,1,.55-2.06,4.13,4.13,0,0,1,1.47-1.61,3.89,3.89,0,0,1,2.31-.58,4.06,4.06,0,0,1,3.71,2.45A4.79,4.79,0,0,1,319,153a4.87,4.87,0,0,1-.55,2,4.09,4.09,0,0,1-1.47,1.62,3.87,3.87,0,0,1-2.31.58A4.38,4.38,0,0,1,312.32,156.55Zm4-.25a3.35,3.35,0,0,0,1.06-1.34,4.76,4.76,0,0,0,.4-1.75,5.63,5.63,0,0,0-.3-2,3.88,3.88,0,0,0-1-1.59,2.46,2.46,0,0,0-1.63-.67,2.52,2.52,0,0,0-1.63.48,3.32,3.32,0,0,0-1.06,1.35,4.66,4.66,0,0,0-.4,1.76,5.59,5.59,0,0,0,.28,1.92,3.86,3.86,0,0,0,1,1.62,2.55,2.55,0,0,0,1.69.69,2.47,2.47,0,0,0,1.63-.47Z" fill="#656565"/>
      <path id="Path_19" data-name="Path 19" d="M323.89,156.1l-1.24-3.27q-.43-1.2-.84-2.52v.52c-.2,2.34-.34,4-.41,5v.26a2.277,2.277,0,0,1-.08.75h.9v.53l-2.29-.13v-.39a.7.7,0,0,0,.67-.25,1.93,1.93,0,0,0,.22-.81l.62-6.39h-.87v-.51l1.83.1,1.42,3.85c.52,1.43.91,2.51,1.19,3.24h0l.69-1.52c.35-.75.74-1.57,1.19-2.47s1-2,1.33-2.78l1.77.1v.39a.76.76,0,0,0-.65.2,1.42,1.42,0,0,0-.25.82v5.71a7,7,0,0,1,0,.75h.88v.53l-2.69-.15v-.4a.74.74,0,0,0,.65-.23,1.57,1.57,0,0,0,.21-.8c0-.16,0-.27,0-.35v-5.12l-.07.15-.11.22-3.06,6.51h-.36Z" fill="#656565"/>
      <path id="Path_20" data-name="Path 20" d="M331,157.51a.91.91,0,0,0,.62-.15.68.68,0,0,0,.23-.41c0-.16.06-.44.09-.85l.39-5.17a4.849,4.849,0,0,1,.1-.86h-.86v-.52l5.75.43-.1,2.1h-.39a1.72,1.72,0,0,0-.32-1.37,1.78,1.78,0,0,0-1.17-.43h-1a1.08,1.08,0,0,0-.63.11.63.63,0,0,0-.27.4,4.848,4.848,0,0,0-.12.84l-.14,1.92,2.25.18v-1h.53l-.19,2.51h-.4a1.6,1.6,0,0,0-.05-.69.56.56,0,0,0-.31-.33,2,2,0,0,0-.61-.13h-1.28l-.2,2.74a4.527,4.527,0,0,1-.11.93l2.29.14a1.56,1.56,0,0,0,1.86-1.73h.41l-.25,2.33-6.18-.47Z" fill="#656565"/>
      <path id="Path_21" data-name="Path 21" d="M342.3,157.45c-.48-1.4-.85-2.51-1.11-3.32s-.51-1.65-.74-2.55l-.06.53c-.3,2.33-.5,4-.61,5v.26a7.478,7.478,0,0,1-.11.75h.9v.52l-2.28-.22v-.39a.68.68,0,0,0,.67-.22,2,2,0,0,0,.26-.8l.87-6.36h-.86l.05-.52,1.82.18,1.27,3.91c.46,1.44.81,2.53,1.06,3.28h0l.76-1.48c.38-.73.8-1.54,1.28-2.42s1-1.93,1.44-2.73l1.77.17v.39a.76.76,0,0,0-.65.18,1.28,1.28,0,0,0-.28.81v.24l-.22,5.46v.74h.87v.53l-2.67-.26v-.39a.73.73,0,0,0,.66-.21,1.56,1.56,0,0,0,.25-.79v-.35l.18-5.12-.08.15a2.182,2.182,0,0,0-.12.22L343.18,159h-.36Z" fill="#656565"/>
      <path id="Path_22" data-name="Path 22" d="M351.39,152.93h0L350.8,158c-.06.53-.11.92-.16,1.17l.86.06-.06.52-2.18-.26.05-.39a.65.65,0,0,0,.66-.2,1.4,1.4,0,0,0,.24-.65l.79-6.53h-.81l.06-.52,1.42.17,4.27,7.39h0l.66-5.46a3.76,3.76,0,0,1,.14-.85l-.86-.06.06-.52,2.19.26-.05.39a1,1,0,0,0-.54.08.53.53,0,0,0-.26.31,2.778,2.778,0,0,0-.12.57l-.05.41-.82,6.67-.57-.07Z" fill="#656565"/>
      <path id="Path_23" data-name="Path 23" d="M360.17,160.48a.73.73,0,0,0,.7-.19,1.73,1.73,0,0,0,.26-.79l.05-.36.85-6-1.22-.16a1.15,1.15,0,0,0-1.12.35,3,3,0,0,0-.54,1.52l-.44-.06.42-2.5,6.93,1-.27,2.52-.46-.06a4.209,4.209,0,0,0,0-1.22,1.19,1.19,0,0,0-.37-.73,1.79,1.79,0,0,0-.9-.35l-1-.14-.91,6.48c-.06.42-.12.73-.17.93l1,.09-.07.53-2.79-.39Z" fill="#656565"/>
      <rect id="Rectangle_72" data-name="Rectangle 72" width="6.53" height="0.75" transform="translate(294.38 166.21)" fill="#656565"/>
      <path id="Path_24" data-name="Path 24" d="M280.48,185.18a2.35,2.35,0,0,1-.75-.34v.39h-.46l-.06-1.92h.35a1.62,1.62,0,0,0,.53,1.19,1.84,1.84,0,0,0,1.24.42,1.43,1.43,0,0,0,.92-.3,1,1,0,0,0,.37-.82,1.09,1.09,0,0,0-.21-.67,1.93,1.93,0,0,0-.52-.46q-.31-.18-.84-.42a9.8,9.8,0,0,1-1-.51,1.94,1.94,0,0,1-.61-.57,1.45,1.45,0,0,1-.25-.88,1.58,1.58,0,0,1,.17-.72A1.44,1.44,0,0,1,280,179a2,2,0,0,1,1.09-.25,3.741,3.741,0,0,1,.81.1,2.17,2.17,0,0,1,.75.36v-.39h.45v2h-.32a2,2,0,0,0-.45-1.2,1.42,1.42,0,0,0-1.15-.49,1.18,1.18,0,0,0-.85.3,1.076,1.076,0,0,0-.1,1.37,1.8,1.8,0,0,0,.51.44c.2.11.47.25.84.42s.73.35,1,.5a2.09,2.09,0,0,1,.63.59,1.48,1.48,0,0,1,.27.9,1.68,1.68,0,0,1-.25.89,1.62,1.62,0,0,1-.73.6,2.59,2.59,0,0,1-1.13.22,3.121,3.121,0,0,1-.89-.18Z" fill="#656565"/>
      <path id="Path_25" data-name="Path 25" d="M284.33,184.86a.67.67,0,0,0,.45-.15.48.48,0,0,0,.15-.32v-4.53a6.005,6.005,0,0,1,0-.65h-.65v-.4h2v.3a.67.67,0,0,0-.45.15.48.48,0,0,0-.15.31c0,.13,0,.34,0,.65v1.49H289v-1.89a6.005,6.005,0,0,1,0-.65h-.65v-.4h2v.3a.67.67,0,0,0-.45.15.55.55,0,0,0-.16.31V184a6,6,0,0,1,0,.71h.65v.39h-2v-.29a.67.67,0,0,0,.45-.15.55.55,0,0,0,.16-.32v-2.28h-3.22v1.93a6,6,0,0,1,0,.71h.65v.39h-2Z" fill="#656565"/>
      <path id="Path_26" data-name="Path 26" d="M292.59,184.82a2.85,2.85,0,0,1-1.06-1.23,3.76,3.76,0,0,1-.34-1.59,3.54,3.54,0,0,1,.35-1.55,3.12,3.12,0,0,1,1.06-1.25,2.93,2.93,0,0,1,1.72-.49,3.06,3.06,0,0,1,1.76.49,3.1,3.1,0,0,1,1.08,1.25,3.55,3.55,0,0,1,.36,1.55,3.769,3.769,0,0,1-.35,1.56,3.22,3.22,0,0,1-1.07,1.25,3,3,0,0,1-1.71.49A3.18,3.18,0,0,1,292.59,184.82Zm3-.29a2.531,2.531,0,0,0,.75-1,3.31,3.31,0,0,0,.26-1.32,4,4,0,0,0-.28-1.49,2.87,2.87,0,0,0-.81-1.17,1.86,1.86,0,0,0-1.24-.45,1.88,1.88,0,0,0-1.21.4,2.51,2.51,0,0,0-.76,1,3.57,3.57,0,0,0-.25,1.33,4,4,0,0,0,.26,1.43,2.9,2.9,0,0,0,.79,1.19,1.88,1.88,0,0,0,1.29.47,1.83,1.83,0,0,0,1.22-.39Z" fill="#656565"/>
      <path id="Path_27" data-name="Path 27" d="M299.79,185a1.85,1.85,0,0,1-.79-1,5.82,5.82,0,0,1-.24-1.84v-2.83h-.65v-.39h2v.3c-.27,0-.43.07-.51.21a1.091,1.091,0,0,0-.11.5v2.27a5.9,5.9,0,0,0,.14,1.35,1.82,1.82,0,0,0,.55.94,1.75,1.75,0,0,0,1.18.37,1.59,1.59,0,0,0,1.39-.65,3.08,3.08,0,0,0,.47-1.75V179.3h-.63v-.4h1.67v.3a.68.68,0,0,0-.46.15.48.48,0,0,0-.15.31c0,.13,0,.34,0,.65v2.09a3.62,3.62,0,0,1-.58,2.12,2.08,2.08,0,0,1-1.84.83,2.86,2.86,0,0,1-1.44-.35Z" fill="#656565"/>
      <path id="Path_28" data-name="Path 28" d="M305.13,184.86a.65.65,0,0,0,.45-.15.49.49,0,0,0,.16-.32v-4.53a6.317,6.317,0,0,1,0-.65h-.65v-.4h2v.3a.67.67,0,0,0-.45.15.48.48,0,0,0-.15.31,5.291,5.291,0,0,0,0,.65v3.86a5.926,5.926,0,0,1,0,.7h1.68a1,1,0,0,0,.87-.36,1.83,1.83,0,0,0,.29-1.14h.3v1.86h-4.47Z" fill="#656565"/>
      <path id="Path_29" data-name="Path 29" d="M310.34,184.86a.67.67,0,0,0,.45-.15.48.48,0,0,0,.15-.32c0-.12,0-.33,0-.64v-4.54h-.64v-.4h2.12a4,4,0,0,1,2.68.79,2.86,2.86,0,0,1,1,2.37,3.23,3.23,0,0,1-.39,1.57,3,3,0,0,1-1.17,1.15,3.88,3.88,0,0,1-1.87.42h-2.36Zm3.68-.42a2.48,2.48,0,0,0,.91-1,3.31,3.31,0,0,0,.32-1.45,2.84,2.84,0,0,0-.72-2.06,2.91,2.91,0,0,0-2.17-.74.67.67,0,0,0-.45.12.48.48,0,0,0-.15.31v4.48a5.932,5.932,0,0,1,0,.7h1a2.43,2.43,0,0,0,1.24-.36Z" fill="#656565"/>
      <path id="Path_30" data-name="Path 30" d="M272,192.85h0v4.74h.64V198H271v-.29c.24,0,.4-.07.47-.21a1,1,0,0,0,.12-.5v-5h-.6v-.4H272l3.83,5.13h0v-4.12a6,6,0,0,1,0-.65h-.65v-.4h1.66v.3a.85.85,0,0,0-.41.1.44.44,0,0,0-.16.26,1.69,1.69,0,0,0,0,.43v5.32h-.43Z" fill="#656565"/>
      <path id="Path_31" data-name="Path 31" d="M277.8,197.66a.67.67,0,0,0,.45-.15.48.48,0,0,0,.15-.32c0-.12,0-.33,0-.64v-3.89a6.005,6.005,0,0,1,0-.65h-.65v-.4h4.33v1.58h-.3a1.26,1.26,0,0,0-.32-1,1.28,1.28,0,0,0-.89-.25h-.77a.72.72,0,0,0-.47.12.45.45,0,0,0-.18.31,3.387,3.387,0,0,0,0,.64v1.44h1.69l-.06-.78h.4v1.89h-.3a1.36,1.36,0,0,0-.08-.51.47.47,0,0,0-.25-.23,1.38,1.38,0,0,0-.46-.06h-.94v2.06a5.939,5.939,0,0,1,0,.7h1.72a1.38,1.38,0,0,0,1-.32,1.41,1.41,0,0,0,.33-1.07h.31l-.06,1.75H277.8Z" fill="#656565"/>
      <path id="Path_32" data-name="Path 32" d="M283.76,193.26a4.911,4.911,0,0,1-.39-1.23h-.51v-.4H285v.3h0a.78.78,0,0,0-.43.13.38.38,0,0,0-.14.33,1.42,1.42,0,0,0,.12.51l.24.58.27.68c.12.31.24.59.35.84l.23.55c.24.53.4.93.5,1.19h0l.33-1,.12-.32.79-2.22.2-.58c.12-.32.21-.55.27-.67h-.7v-.4h1.83v.3a.93.93,0,0,0-.61.21,1.57,1.57,0,0,0-.38.67l-1.9,5.21h-.25Z" fill="#656565"/>
      <path id="Path_33" data-name="Path 33" d="M289.27,197.66a.67.67,0,0,0,.45-.15.55.55,0,0,0,.16-.32v-4.53a6.005,6.005,0,0,1,0-.65h-.65v-.4h4.33v1.58h-.3a1,1,0,0,0-1.22-1.26h-.77a.74.74,0,0,0-.47.12.54.54,0,0,0-.18.31,4.921,4.921,0,0,0,0,.64v1.44h1.69l-.06-.78h.39v1.89h-.3a1.18,1.18,0,0,0-.08-.51.42.42,0,0,0-.24-.23,1.49,1.49,0,0,0-.47-.06h-.93v2.06a5.932,5.932,0,0,1,0,.7h1.72a1.34,1.34,0,0,0,1-.32,1.41,1.41,0,0,0,.33-1.07H294l-.05,1.75H289.3Z" fill="#656565"/>
      <path id="Path_34" data-name="Path 34" d="M294.87,197.66a.67.67,0,0,0,.45-.15.48.48,0,0,0,.15-.32c0-.12,0-.33,0-.64v-3.89a6.005,6.005,0,0,1,0-.65h-.65v-.4h2.06a3.4,3.4,0,0,1,1.86.42,1.37,1.37,0,0,1,.59,1.19,1.79,1.79,0,0,1-.37,1.11,2.13,2.13,0,0,1-1.31.69,1.379,1.379,0,0,1,.27.27c.09.11.2.28.35.51l.61,1a4.687,4.687,0,0,0,.33.48.926.926,0,0,0,.77.38V198h-1.14a2.69,2.69,0,0,1-.41-.42q-.17-.22-.39-.57l-.6-1-.12-.19a4.559,4.559,0,0,0-.25-.39,2,2,0,0,0-.23-.27h-.62v2.45h.64V198h-2Zm3.64-4.31a1.3,1.3,0,0,0-.4-1,1.81,1.81,0,0,0-1.22-.34.64.64,0,0,0-.44.12.45.45,0,0,0-.16.31c0,.12,0,.33,0,.64v1.73h.4C297.89,194.8,298.51,194.32,298.51,193.35Z" fill="#656565"/>
      <path id="Path_35" data-name="Path 35" d="M302.89,197.66a.67.67,0,0,0,.45-.15.48.48,0,0,0,.15-.32c0-.12,0-.33,0-.64v-3.89a6.005,6.005,0,0,1,0-.65h-.65v-.4h4.17l.05,1.58h-.3a1.26,1.26,0,0,0-.33-1,1.35,1.35,0,0,0-.91-.25h-.66a.58.58,0,0,0-.44.14.51.51,0,0,0-.15.33,4.652,4.652,0,0,0,0,.63v1.55h1.57l-.06-.78h.39v1.9h-.29a1.41,1.41,0,0,0-.07-.52.42.42,0,0,0-.24-.23,1.36,1.36,0,0,0-.45-.06h-.85v2.6h.91v.5h-2.29Z" fill="#656565"/>
      <path id="Path_36" data-name="Path 36" d="M306.93,197.66a.57.57,0,0,0,.36-.11.84.84,0,0,0,.22-.27,2.68,2.68,0,0,0,.2-.5l.09-.25,1.86-5.05h.21l2,5.12a4.114,4.114,0,0,1,.17.53,1.41,1.41,0,0,1,.06.46h.62V198h-2.06v-.29c.35,0,.53-.15.53-.43a1.32,1.32,0,0,0-.09-.43l-.32-.84h-2.34c-.09.25-.19.57-.31,1a5.913,5.913,0,0,1-.23.62h.7V198h-1.68Zm3.74-2L310,193.9l-.41-1.1h0l-.37,1-.49,1.37-.15.44Z" fill="#656565"/>
      <path id="Path_37" data-name="Path 37" d="M313.11,197.66a.67.67,0,0,0,.45-.15.55.55,0,0,0,.16-.32c0-.12,0-.33,0-.64v-3.89a6,6,0,0,1,0-.65h-.65v-.4h2.13a4,4,0,0,1,2.68.79,2.86,2.86,0,0,1,1,2.37,3.14,3.14,0,0,1-.4,1.57,2.88,2.88,0,0,1-1.17,1.15,3.82,3.82,0,0,1-1.86.42h-2.37Zm3.68-.42a2.41,2.41,0,0,0,.91-1,3.19,3.19,0,0,0,.33-1.45,2.84,2.84,0,0,0-.72-2.06,2.92,2.92,0,0,0-2.17-.74.67.67,0,0,0-.45.12.48.48,0,0,0-.15.31,5.291,5.291,0,0,0,0,.65v3.83a5.932,5.932,0,0,1,0,.7h1a2.41,2.41,0,0,0,1.25-.36Z" fill="#656565"/>
      <path id="Path_38" data-name="Path 38" d="M319.73,197.66a.67.67,0,0,0,.45-.15.48.48,0,0,0,.15-.32c0-.12,0-.33,0-.64v-3.89a6,6,0,0,1,0-.65h-.65v-.4h4.33v1.58h-.3a1.3,1.3,0,0,0-.31-1,1.32,1.32,0,0,0-.9-.25h-.77a.72.72,0,0,0-.47.12.45.45,0,0,0-.18.31,3.389,3.389,0,0,0,0,.64v1.44h1.69l-.06-.78h.4v1.89h-.3a1.36,1.36,0,0,0-.08-.51.47.47,0,0,0-.25-.23,1.38,1.38,0,0,0-.46-.06h-.94v2.06a5.926,5.926,0,0,1,0,.7h1.72a1.38,1.38,0,0,0,1-.32,1.41,1.41,0,0,0,.33-1.07h.31l-.06,1.75h-4.64Z" fill="#656565"/>
    </g>
  </g>
</svg>
