<svg xmlns="http://www.w3.org/2000/svg" width="50" height="50" viewBox="0 0 50 50">
  <g id="vimeo" transform="translate(1414 -13260)">
    <rect id="Rectangle_45" data-name="Rectangle 45" width="50" height="50" transform="translate(-1414 13260)" fill="none"/>
    <path id="vimeo-2" data-name="vimeo" d="M31.657,13.333c-3.38,7.22-11.538,17.049-16.694,17.049-5.082,0-5.813-10.838-8.591-18.051C5.006,8.781,4.124,9.6,1.564,11.388L0,9.37c3.737-3.283,7.473-7.1,9.766-7.307q3.875-.372,4.772,5.3c.786,4.972,1.885,12.691,3.8,12.691,1.495,0,5.177-6.123,5.367-8.312.336-3.205-2.353-3.3-4.694-2.3C22.716-2.67,38.105-.436,31.657,13.333Z" transform="translate(-1406 13268.453)" fill="#fff"/>
  </g>
</svg>
