<svg xmlns="http://www.w3.org/2000/svg" width="298" height="394.801" viewBox="0 0 298 394.801">
  <g id="s" transform="translate(-48.4 0.001)">
    <path id="Path_273" data-name="Path 273" d="M218.4,167.6a27.93,27.93,0,0,0-9.6-5.2,56.651,56.651,0,0,0-12.4-1.2H178a10.59,10.59,0,0,0-6.8,2c-1.2,1.2-2,3.6-2,6.8v51.6c0,2.4,0,4,.8,5.6a5,5,0,0,0,2.4,3.2q1.8,1.2,6,1.2h18.4a59.919,59.919,0,0,0,8.8-.8,48.363,48.363,0,0,0,7.2-2,22.42,22.42,0,0,0,6-4,35.841,35.841,0,0,0,6-7.6,34.17,34.17,0,0,0,3.6-9.6,51.68,51.68,0,0,0,1.2-11.6C229.6,183.6,226,174,218.4,167.6ZM208,217.2a16.21,16.21,0,0,1-3.6,2,17.6,17.6,0,0,1-4,.8H184V172h9.6a31.54,31.54,0,0,1,11.2,1.6c3.2.8,5.6,3.2,7.6,6.8s3.2,8.8,3.2,15.6C215.2,206.4,212.8,213.2,208,217.2Z" fill="#fff"/>
    <path id="Path_274" data-name="Path 274" d="M345.6,78.8l-.4-.4V78l-76-76-.4-.4a.39.39,0,0,1-.4-.4.39.39,0,0,1-.4-.4c-1.2-.8-2.4-.8-4-.8H75.6A26.62,26.62,0,0,0,56.8,7.6l-.4.4a27.94,27.94,0,0,0-8,19.2V367.6a27.2,27.2,0,0,0,8,19.2,27.94,27.94,0,0,0,19.2,8H319.2a27.2,27.2,0,0,0,19.2-8,27.94,27.94,0,0,0,8-19.2V82.8a11.829,11.829,0,0,0-.8-4Zm-74-50L316.8,74H283.6a10.89,10.89,0,0,1-8.4-3.6,12.47,12.47,0,0,1-3.6-8.4V28.8Zm57.6,338.8A11,11,0,0,1,318.8,378H75.6a11.5,11.5,0,0,1-7.2-2.8,9.64,9.64,0,0,1-2.8-7.2V26.8a10,10,0,0,1,3.2-7.2l.4-.4A11.35,11.35,0,0,1,76,16.4H255.2V61.6A29,29,0,0,0,264,82.4a29.66,29.66,0,0,0,20.8,8.4h44.4V367.6Z" fill="#fff"/>
    <path id="Path_275" data-name="Path 275" d="M150.8,166.8a15.45,15.45,0,0,0-7.6-4,49.579,49.579,0,0,0-12.4-1.2H112.4c-3.2,0-5.6.8-6.8,2-1.6,1.2-2,3.6-2,6.8v54.4a10.18,10.18,0,0,0,2,6.4c1.2,1.6,3.2,2,5.2,2a7,7,0,0,0,5.2-2.4,10.18,10.18,0,0,0,2-6.4v-20h13.2c8.8,0,15.2-2,19.6-5.6s6.8-9.2,6.8-16.4a23.47,23.47,0,0,0-1.6-9.2,27.94,27.94,0,0,0-5.2-6.4Zm-9.6,22.4a10.16,10.16,0,0,1-5.2,3.6,26.589,26.589,0,0,1-8.4,1.2H118V172.4h9.6c6.4,0,10.4,1.2,12.8,3.2,2,2,2.8,4.4,2.8,7.6C142.8,185.6,142.4,187.6,141.2,189.2Z" fill="#fff"/>
    <path id="Path_276" data-name="Path 276" d="M250.8,160.8a13.29,13.29,0,0,0-5.2,1.6,4.83,4.83,0,0,0-2.8,2.8c-.8,1.2-.8,2.8-.8,5.2v54c0,2.8.8,5.2,2,6.4,1.2,1.6,3.2,2,5.2,2a8.42,8.42,0,0,0,5.2-2,10.18,10.18,0,0,0,2-6.4V201.2H280a6.38,6.38,0,0,0,4.8-1.6c1.2-.8,1.6-2.4,1.6-4a5.14,5.14,0,0,0-1.6-4A8.58,8.58,0,0,0,280,190H256.4V172h28c2.4,0,4-.4,5.2-1.6a5.8,5.8,0,0,0,0-8c-1.2-1.2-2.8-1.6-5.2-1.6Z" fill="#fff"/>
  </g>
</svg>
