<svg xmlns="http://www.w3.org/2000/svg" width="50" height="50" viewBox="0 0 50 50">
  <g id="youtube" transform="translate(1482 -13260)">
    <rect id="Rectangle_45" data-name="Rectangle 45" width="50" height="50" transform="translate(-1482 13260)" fill="none"/>
    <path id="Subtraction_1" data-name="Subtraction 1" d="M20.5,28.7c-.032,0-3.241,0-6.8-.11-2.092-.064-3.9-.151-5.361-.261a23.8,23.8,0,0,1-3.873-.507A5.137,5.137,0,0,1,.844,24.208a20.4,20.4,0,0,1-.488-2.879c-.105-.95-.189-2.04-.251-3.24C0,16.044,0,14.366,0,14.349s0-1.686.1-3.727c.061-1.2.146-2.288.251-3.239A20.808,20.808,0,0,1,.844,4.491,5.239,5.239,0,0,1,4.457.844,24.341,24.341,0,0,1,8.316.356C9.779.251,11.584.167,13.678.106,17.246,0,20.462,0,20.5,0s3.249,0,6.816.11c2.1.064,3.9.151,5.363.261a23.457,23.457,0,0,1,3.859.508,5.135,5.135,0,0,1,3.613,3.613,19.693,19.693,0,0,1,.5,2.9c.106.954.19,2.047.249,3.25.1,2.031.093,3.675.093,3.744,0,.017,0,1.686-.106,3.727-.061,1.2-.146,2.288-.251,3.239a20.8,20.8,0,0,1-.488,2.893,5.135,5.135,0,0,1-3.613,3.613,24.341,24.341,0,0,1-3.859.488c-1.464.105-3.268.189-5.363.251C23.743,28.7,20.527,28.7,20.5,28.7ZM16.409,8.2h0V20.49l10.669-6.145Z" transform="translate(-1478 13270)" fill="#fff"/>
  </g>
</svg>
