<svg id="圖層_1" data-name="圖層 1" xmlns="http://www.w3.org/2000/svg" xmlns:xlink="http://www.w3.org/1999/xlink" width="2500" height="50" viewBox="0 0 2500 50"><defs><style>.cls-1,.cls-19{fill:none;stroke-linecap:round;}.cls-1{stroke:#fff;stroke-miterlimit:10;stroke-width:6px;}.cls-2,.cls-6{fill:#ffb24f;}.cls-11,.cls-12,.cls-16,.cls-17,.cls-18,.cls-2,.cls-3,.cls-4,.cls-5{fill-rule:evenodd;}.cls-15,.cls-3{fill:#2f3e47;}.cls-4,.cls-7{fill:#fff;}.cls-11,.cls-8,.cls-9{fill:#173042;}.cls-9{isolation:isolate;}.cls-10{fill:#cbcbcb;}.cls-12{fill:#9b9b9b;}.cls-13{fill:#969696;}.cls-14,.cls-18{fill:#026cb7;}.cls-16{fill:#303030;}.cls-17{fill:#535353;}.cls-19{stroke:#ffb24f;stroke-linejoin:round;stroke-width:2px;}.cls-20{fill:#005bbb;}.cls-21{fill:#9d9d9d;}.cls-22{fill:#34a853;}.cls-23{fill:#fbbc04;}.cls-24{fill:#4285f4;}.cls-25{fill:#1a73e8;}.cls-26{fill:#ea4335;}.cls-27{fill:#0166e2;}.cls-28{fill:url(#未命名漸層_10);}.cls-29{fill:url(#未命名漸層_10-3);}.cls-30{fill:#00b900;}</style><linearGradient id="未命名漸層_10" x1="2174.54" y1="3.67" x2="2174.54" y2="46.34" gradientUnits="userSpaceOnUse"><stop offset="0" stop-color="#7351c8"/><stop offset="0.53" stop-color="#d62e80"/><stop offset="1" stop-color="#ffbb65"/></linearGradient><linearGradient id="未命名漸層_10-3" x1="2186.34" y1="3.67" x2="2186.34" y2="46.34" xlink:href="#未命名漸層_10"/></defs><title>iconset</title><polyline class="cls-1" points="1413 26.59 1420.41 34 1438.41 16"/><polygon class="cls-2" points="11 3.34 11 12.51 28.88 25 11 37.49 11 46.66 42 25 11 3.34"/><polygon class="cls-3" points="61 3.34 61 12.51 78.88 25 61 37.49 61 46.66 92 25 61 3.34"/><polygon class="cls-4" points="111 3.34 111 12.51 128.88 25 111 37.49 111 46.66 142 25 111 3.34"/><polygon class="cls-2" points="288 46.66 288 37.49 270.12 25 288 12.51 288 3.34 257 25 288 46.66"/><polygon class="cls-3" points="338 46.66 338 37.49 320.12 25 338 12.51 338 3.34 307 25 338 46.66"/><polygon class="cls-5" points="952.84 40.5 962 40.5 974.5 22.62 987 40.5 996.16 40.5 974.5 9.5 952.84 40.5"/><polygon class="cls-4" points="388 46.66 388 37.49 370.12 25 388 12.51 388 3.34 357 25 388 46.66"/><circle class="cls-6" cx="524.24" cy="25" r="15.48"/><path class="cls-6" d="M524.24,49a24,24,0,1,1,24-24A24,24,0,0,1,524.24,49Zm0-46.67A22.67,22.67,0,1,0,546.9,25,22.7,22.7,0,0,0,524.24,2.33Z"/><polygon class="cls-7" points="522.07 20.46 522.07 29.88 528.81 25.17 522.07 20.46"/><circle id="橢圓_3" data-name="橢圓 3" class="cls-6" cx="574.39" cy="25" r="24"/><path class="cls-4" d="M580.17,17.45H568.93a4.36,4.36,0,0,0-4.36,4.36v5.34a4.37,4.37,0,0,0,4.36,4.37H576l4.43,3.63-.37-3.63h.1a4.36,4.36,0,0,0,4.35-4.37V21.81h0A4.35,4.35,0,0,0,580.17,17.45Z"/><rect id="圓角矩形_2" data-name="圓角矩形 2" class="cls-6" x="570.38" y="22.22" width="8.61" height="1.25" rx="0.62"/><rect id="圓角矩形_2_拷貝" data-name="圓角矩形 2 拷貝" class="cls-6" x="570.38" y="25.3" width="8.61" height="1.23" rx="0.61"/><path class="cls-8" d="M641.2,16.27A1.38,1.38,0,0,0,639.84,15h-4.72c-.22-8.17-4.32-13.62-10.35-13.62S614.65,6.81,614.43,15h-4.72a1.37,1.37,0,0,0-1.36,1.29l-1.73,29.29A1.36,1.36,0,0,0,608,47h33.59a1.37,1.37,0,0,0,1.36-1.44Zm-25.62,9.61a2.73,2.73,0,1,1,2.72-2.72A2.72,2.72,0,0,1,615.58,25.88ZM618.51,15c.15-4.54,1.85-9.53,6.26-9.53s6.11,5,6.27,9.53ZM634,26.56a2.72,2.72,0,1,1,2.72-2.72A2.72,2.72,0,0,1,634,26.56Z"/><path class="cls-9" d="M698.11,44.42,688.56,35a20,20,0,1,0-2.45,2.78L695.46,47Zm-41.69-21.1a16,16,0,1,1,16,16A16,16,0,0,1,656.42,23.32Z"/><path class="cls-10" d="M1747.11,36.4l-5.91-5.8a12.42,12.42,0,1,0-1.52,1.72l5.79,5.68Zm-25.8-13a9.92,9.92,0,1,1,9.92,9.91A9.93,9.93,0,0,1,1721.31,23.35Z"/><path class="cls-6" d="M724.43,49A12.94,12.94,0,0,1,711.5,36.07V13.43a12.94,12.94,0,0,1,25.87,0V36.07A13,13,0,0,1,724.43,49Zm0-46.34a10.78,10.78,0,0,0-10.77,10.77V36.07a10.78,10.78,0,0,0,21.55,0V13.43A10.78,10.78,0,0,0,724.43,2.66Z"/><rect class="cls-6" x="722.28" y="10.2" width="4.31" height="6.47" rx="2.16"/><path id="Rectangle_26_copy_4" data-name="Rectangle 26 copy 4" class="cls-11" d="M803.5,5.57h15.65V21.23H803.5Zm26.09,0h15.65V21.23H829.59Zm0,24.35h15.65V45.57H829.59Zm-26.09,0h15.65V45.57H803.5Z"/><path id="Rectangle_26_copy_6" data-name="Rectangle 26 copy 6" class="cls-11" d="M753.61,5.57h41.74v9.74H753.61Zm0,15.13h41.74v9.74H753.61Zm0,15.13h41.74v9.74H753.61Z"/><polygon class="cls-12" points="161 3.34 161 12.51 178.88 25 161 37.49 161 46.66 192 25 161 3.34"/><polygon class="cls-12" points="438 46.66 438 37.49 420.12 25 438 12.51 438 3.34 407 25 438 46.66"/><path class="cls-13" d="M874.5,1a17.58,17.58,0,0,0-17.58,17.58C856.92,29,874.5,49,874.5,49s17.58-19.27,17.58-30.42A17.58,17.58,0,0,0,874.5,1Zm0,24.46a7.61,7.61,0,1,1,7.61-7.6A7.61,7.61,0,0,1,874.5,25.46Z"/><path class="cls-14" d="M925,1a17.58,17.58,0,0,0-17.58,17.58C907.42,29,925,49,925,49s17.58-19.27,17.58-30.42A17.58,17.58,0,0,0,925,1Zm0,24.46a7.61,7.61,0,1,1,7.61-7.6A7.61,7.61,0,0,1,925,25.46Z"/><polygon class="cls-15" points="1020.5 31.85 1031.37 24.25 1020.5 16.66 1020.5 31.85"/><path class="cls-15" d="M1024.34.83a24,24,0,1,0,24,24A24,24,0,0,0,1024.34.83Zm0,46.47a22.47,22.47,0,1,1,22.47-22.47A22.5,22.5,0,0,1,1024.34,47.3Z"/><path class="cls-16" d="M1054.86,44a3.56,3.56,0,0,1-1.8-1,3,3,0,0,1-.8-2.08c0-3.32,0-6.64,0-9.95a3,3,0,1,1,6,.1c0,2.12,0,4.24,0,6.35,0,.49,0,.49.47.49h31.45c.47,0,.47,0,.47-.45V31.09a3,3,0,0,1,1.25-2.62,2.9,2.9,0,0,1,3-.33,2.85,2.85,0,0,1,1.78,2.36,5,5,0,0,1,0,.67q0,4.76,0,9.53a3.21,3.21,0,0,1-.84,2.32,3.3,3.3,0,0,1-1.5.87l-.27.08Z"/><path class="cls-16" d="M1074.93,6a8.2,8.2,0,0,1,1.29.55,2.93,2.93,0,0,1,1.32,2.55c0,.58,0,1.17,0,1.76V24c.3-.29.55-.51.78-.75,1.06-1.06,2.11-2.13,3.19-3.18a3,3,0,0,1,3.74-.37,3.07,3.07,0,0,1,1.21,3.6,4.75,4.75,0,0,1-1.24,1.64l-4.94,4.93c-1.25,1.25-2.49,2.5-3.76,3.72a3.05,3.05,0,0,1-4.31-.22c-1.9-1.92-3.82-3.82-5.73-5.73-1.16-1.17-2.34-2.32-3.44-3.53a2.75,2.75,0,0,1-.47-2.95,2.9,2.9,0,0,1,2.39-1.91,3.32,3.32,0,0,1,3,1.23c1.07,1.11,2.17,2.18,3.26,3.27a2.13,2.13,0,0,0,.28.23V9.35a3.28,3.28,0,0,1,.73-2.23,3.11,3.11,0,0,1,1.62-1l.26-.08Z"/><path class="cls-2" d="M1104.86,44a3.56,3.56,0,0,1-1.8-1,3,3,0,0,1-.8-2.08c0-3.32,0-6.64,0-9.95a3,3,0,1,1,6,.1c0,2.12,0,4.24,0,6.35,0,.49,0,.49.47.49h31.45c.47,0,.47,0,.47-.45V31.09a3,3,0,0,1,1.25-2.62,2.9,2.9,0,0,1,3-.33,2.85,2.85,0,0,1,1.78,2.36,5,5,0,0,1,0,.67q0,4.76,0,9.53a3.21,3.21,0,0,1-.84,2.32,3.3,3.3,0,0,1-1.5.87l-.27.08Z"/><path class="cls-2" d="M1124.93,6a8.2,8.2,0,0,1,1.29.55,2.93,2.93,0,0,1,1.32,2.55c0,.58,0,1.17,0,1.76V24c.3-.29.55-.51.78-.75,1.06-1.06,2.11-2.13,3.19-3.18a3,3,0,0,1,3.74-.37,3.07,3.07,0,0,1,1.21,3.6,4.75,4.75,0,0,1-1.24,1.64l-4.94,4.93c-1.25,1.25-2.49,2.5-3.76,3.72a3.05,3.05,0,0,1-4.31-.22c-1.9-1.92-3.82-3.82-5.73-5.73-1.16-1.17-2.34-2.32-3.44-3.53a2.75,2.75,0,0,1-.47-2.95,2.9,2.9,0,0,1,2.39-1.91,3.32,3.32,0,0,1,3,1.23c1.07,1.11,2.17,2.18,3.26,3.27a2.13,2.13,0,0,0,.28.23V9.35a3.28,3.28,0,0,1,.73-2.23,3.11,3.11,0,0,1,1.62-1l.26-.08Z"/><polygon class="cls-3" points="1152.84 40.5 1162.01 40.5 1174.5 22.62 1186.99 40.5 1196.16 40.5 1174.5 9.5 1152.84 40.5"/><polygon class="cls-17" points="1311 3.34 1311 12.51 1328.88 25 1311 37.49 1311 46.66 1342 25 1311 3.34"/><polygon class="cls-18" points="1246.16 9.5 1236.99 9.5 1224.5 27.38 1212.01 9.5 1202.84 9.5 1224.5 40.5 1246.16 9.5"/><polygon class="cls-17" points="1293.92 10.76 1288.74 5.59 1274.5 19.82 1260.26 5.59 1255.08 10.76 1269.32 25 1255.08 39.24 1260.26 44.41 1274.5 30.18 1288.74 44.41 1293.92 39.24 1279.68 25 1293.92 10.76"/><path class="cls-6" d="M1375,2a23,23,0,1,0,22.83,23A22.92,22.92,0,0,0,1375,2Zm9.85,36a4.31,4.31,0,0,1-4.3-4.34,5.07,5.07,0,0,1,0-.55,9.34,9.34,0,0,1-5.14,1.54,9.45,9.45,0,1,1,8.4-5.2,4.73,4.73,0,0,1,1-.12,4.34,4.34,0,0,1,0,8.67Z"/><line class="cls-19" x1="454.5" y1="5" x2="494.5" y2="45"/><line class="cls-19" x1="494.5" y1="5" x2="454.5" y2="45"/><polygon class="cls-20" points="1624.5 36.24 1636.9 14.76 1612.1 14.76 1624.5 36.24"/><polygon class="cls-6" points="1674.5 36.24 1686.9 14.76 1662.1 14.76 1674.5 36.24"/><g id="_01._Facebook" data-name="01. Facebook"><path id="Icon" class="cls-21" d="M1768.85,27.6h-5.24c-.85,0-1.11-.31-1.11-1.11v-6.4c0-.84.31-1.11,1.11-1.11h5.24V14.33a11.81,11.81,0,0,1,1.42-6A8.8,8.8,0,0,1,1775,4.44a11.87,11.87,0,0,1,4.07-.68h5.18c.75,0,1.06.31,1.06,1v6c0,.74-.31,1.05-1.06,1.05-1.42,0-2.85,0-4.28,0a1.91,1.91,0,0,0-2.17,2.17c0,1.58,0,3.11,0,4.75h6.13c.85,0,1.17.32,1.17,1.17v6.39c0,.85-.27,1.12-1.17,1.12h-6.13V44.78c0,.9-.26,1.22-1.22,1.22H1770c-.79,0-1.11-.31-1.11-1.11,0-5.55,0-17.13,0-17.29Z"/></g><path class="cls-21" d="M1832.78,2.17h-16.47a13.72,13.72,0,0,0-13.73,13.72V32.36a13.72,13.72,0,0,0,13.73,13.72h16.47a13.72,13.72,0,0,0,13.72-13.72V15.89A13.72,13.72,0,0,0,1832.78,2.17Zm9.6,30.19a9.61,9.61,0,0,1-9.6,9.61h-16.47a9.62,9.62,0,0,1-9.61-9.61V15.89a9.62,9.62,0,0,1,9.61-9.61h16.47a9.61,9.61,0,0,1,9.6,9.61Z"/><path class="cls-21" d="M1824.54,13.15a11,11,0,1,0,11,11A11,11,0,0,0,1824.54,13.15Zm0,17.84a6.87,6.87,0,1,1,6.86-6.86A6.87,6.87,0,0,1,1824.54,31Z"/><circle class="cls-21" cx="1836.34" cy="12.32" r="1.47"/><path class="cls-21" d="M1897.47,21.05c-.56-9.65-10.56-17.33-22.83-17.33-12.62,0-22.84,8.14-22.84,18.17,0,9.23,8.64,16.85,19.84,18a1.25,1.25,0,0,1,1.1,1.37l-.48,4.29a1.25,1.25,0,0,0,1.78,1.26c9.46-4.57,15.12-9.27,18.49-13.33.61-.74,2.62-3.55,3-4.29a15.21,15.21,0,0,0,1.75-5c.1-.56.15-1,.18-1.39C1897.52,22.22,1897.48,21.33,1897.47,21.05Zm-31.88,6.85h-4.67a1.16,1.16,0,0,1-1.17-1.16V17.91a1.17,1.17,0,0,1,2.34,0v7.66h3.5a1.17,1.17,0,0,1,0,2.33Zm4.62-.9a.92.92,0,0,1-.92.91h-.51a.91.91,0,0,1-.91-.91V17.66a.91.91,0,0,1,.91-.91h.51a.92.92,0,0,1,.92.91Zm10.86-.3a1.17,1.17,0,0,1-2,.9c-.07-.07-4.81-6.21-4.81-6.21v5.36a1.17,1.17,0,0,1-2.33,0V18a1.19,1.19,0,0,1,1.12-1.21,1.15,1.15,0,0,1,.92.38c.07.08,4.74,6.17,4.74,6.17v-5.4a1.15,1.15,0,0,1,1.16-1.15,1.16,1.16,0,0,1,1.17,1.16Zm7.6-5.54a1.17,1.17,0,1,1,0,2.34h-3.51v2.07h3.51a1.17,1.17,0,1,1,0,2.33H1884a1.16,1.16,0,0,1-1.17-1.16V17.91a1.16,1.16,0,0,1,1.17-1.16h4.67a1.17,1.17,0,1,1,0,2.34h-3.51v2.07Z"/><g id="_01._Facebook-2" data-name="01. Facebook"><path id="Icon-2" data-name="Icon" class="cls-7" d="M1918.85,27.6h-5.24c-.85,0-1.11-.31-1.11-1.11v-6.4c0-.84.31-1.11,1.11-1.11h5.24V14.33a11.81,11.81,0,0,1,1.42-6A8.8,8.8,0,0,1,1925,4.44a11.87,11.87,0,0,1,4.07-.68h5.18c.75,0,1.06.31,1.06,1v6c0,.74-.31,1.05-1.06,1.05-1.42,0-2.85,0-4.28,0a1.91,1.91,0,0,0-2.17,2.17c0,1.58,0,3.11,0,4.75h6.13c.85,0,1.17.32,1.17,1.17v6.39c0,.85-.27,1.12-1.17,1.12h-6.13V44.78c0,.9-.26,1.22-1.22,1.22H1920c-.79,0-1.11-.31-1.11-1.11,0-5.55,0-17.13,0-17.29Z"/></g><path class="cls-7" d="M1982.78,2.17h-16.47a13.72,13.72,0,0,0-13.73,13.72V32.36a13.72,13.72,0,0,0,13.73,13.72h16.47a13.72,13.72,0,0,0,13.72-13.72V15.89A13.72,13.72,0,0,0,1982.78,2.17Zm9.6,30.19a9.61,9.61,0,0,1-9.6,9.61h-16.47a9.62,9.62,0,0,1-9.61-9.61V15.89a9.62,9.62,0,0,1,9.61-9.61h16.47a9.61,9.61,0,0,1,9.6,9.61Z"/><path class="cls-7" d="M1974.54,13.15a11,11,0,1,0,11,11A11,11,0,0,0,1974.54,13.15Zm0,17.84a6.87,6.87,0,1,1,6.86-6.86A6.87,6.87,0,0,1,1974.54,31Z"/><circle class="cls-7" cx="1986.34" cy="12.32" r="1.47"/><path class="cls-7" d="M2047.47,21.05c-.56-9.65-10.56-17.33-22.83-17.33-12.62,0-22.84,8.14-22.84,18.17,0,9.23,8.64,16.85,19.84,18a1.25,1.25,0,0,1,1.1,1.37l-.48,4.29a1.25,1.25,0,0,0,1.78,1.26c9.46-4.57,15.12-9.27,18.49-13.33.61-.74,2.62-3.55,3-4.29a15.21,15.21,0,0,0,1.75-5c.1-.56.15-1,.18-1.39C2047.52,22.22,2047.48,21.33,2047.47,21.05Zm-31.88,6.85h-4.67a1.16,1.16,0,0,1-1.17-1.16V17.91a1.17,1.17,0,0,1,2.34,0v7.66h3.5a1.17,1.17,0,0,1,0,2.33Zm4.62-.9a.92.92,0,0,1-.92.91h-.51a.91.91,0,0,1-.91-.91V17.66a.91.91,0,0,1,.91-.91h.51a.92.92,0,0,1,.92.91Zm10.86-.3a1.17,1.17,0,0,1-2,.9c-.07-.07-4.81-6.21-4.81-6.21v5.36a1.17,1.17,0,0,1-2.33,0V18a1.19,1.19,0,0,1,1.12-1.21,1.15,1.15,0,0,1,.92.38c.07.08,4.74,6.17,4.74,6.17v-5.4a1.15,1.15,0,0,1,1.16-1.15,1.16,1.16,0,0,1,1.17,1.16Zm7.6-5.54a1.17,1.17,0,0,1,0,2.34h-3.51v2.07h3.51a1.17,1.17,0,1,1,0,2.33H2034a1.16,1.16,0,0,1-1.17-1.16V17.91a1.16,1.16,0,0,1,1.17-1.16h4.67a1.17,1.17,0,1,1,0,2.34h-3.51v2.07Z"/><path class="cls-21" d="M1540.66,13.46h-5.48a10.85,10.85,0,0,0-21.36,0h-5.48L1505.79,41a4.13,4.13,0,0,0,4.11,4.51h29.2a4.13,4.13,0,0,0,4.11-4.51Zm-16.16-6a7.89,7.89,0,0,1,7.63,6h-15.26A7.89,7.89,0,0,1,1524.5,7.47Zm8.32,24h-16.64V26.69h16.64Z"/><g id="g842"><path id="path835" class="cls-22" d="M2067.77,36a43.88,43.88,0,0,1,3.55,5.24,27.37,27.37,0,0,1,1.94,4.93c.4,1.14.77,1.48,1.56,1.48s1.25-.57,1.55-1.48a27,27,0,0,1,1.88-4.84,54.2,54.2,0,0,1,5.25-7.44,45.64,45.64,0,0,0,5.22-7.5,18.3,18.3,0,0,0,1.78-7.95,15.79,15.79,0,0,0-1.76-7.34l-5.1,1.37-3.1,8.15-.77,1.11-.16.21-.21.26-.34.41-.51.51-2.76,2.25-6.88,4Z"/><path id="path833" class="cls-23" d="M2060.66,25.78c1.69,3.85,4.91,7.21,7.11,10.17l11.66-13.8a6.13,6.13,0,0,1-4.61,2.15,6,6,0,0,1-6-6,6.43,6.43,0,0,1,1.36-3.87l-7.9,2.11Z"/><path id="path831" class="cls-24" d="M2079.57,3.33a15.59,15.59,0,0,1,9.17,7.74l-9.31,11.1a6.5,6.5,0,0,0,1.36-3.87,6,6,0,0,0-6-6,6.28,6.28,0,0,0-4.64,2.13v-7Z"/><path id="path829" class="cls-25" d="M2062.79,8.22a15.59,15.59,0,0,1,12-5.6,16.16,16.16,0,0,1,4.77.71l-9.36,11.12h-6.62Z"/><path id="path827" class="cls-26" d="M2060.66,25.78a17.89,17.89,0,0,1-1.53-7.41,15.53,15.53,0,0,1,3.69-10.12l7.39,6.23Z"/></g><g id="_01._Facebook-3" data-name="01. Facebook"><path id="Icon-3" data-name="Icon" class="cls-27" d="M2118.85,27.6h-5.24c-.85,0-1.11-.31-1.11-1.11v-6.4c0-.84.31-1.11,1.11-1.11h5.24V14.33a11.81,11.81,0,0,1,1.42-6A8.8,8.8,0,0,1,2125,4.44a11.87,11.87,0,0,1,4.07-.68h5.18c.75,0,1.06.31,1.06,1v6c0,.74-.31,1.05-1.06,1.05-1.42,0-2.85,0-4.28,0a1.91,1.91,0,0,0-2.17,2.17c-.05,1.58,0,3.11,0,4.75h6.13c.85,0,1.17.32,1.17,1.17v6.39c0,.85-.27,1.12-1.17,1.12h-6.13V44.78c0,.9-.26,1.22-1.22,1.22H2120c-.79,0-1.11-.31-1.11-1.11,0-5.55,0-17.13,0-17.29Z"/></g><path class="cls-28" d="M2182.78,2.17h-16.47a13.72,13.72,0,0,0-13.73,13.72V32.36a13.72,13.72,0,0,0,13.73,13.72h16.47a13.72,13.72,0,0,0,13.72-13.72V15.89A13.72,13.72,0,0,0,2182.78,2.17Zm9.6,30.19a9.61,9.61,0,0,1-9.6,9.61h-16.47a9.62,9.62,0,0,1-9.61-9.61V15.89a9.62,9.62,0,0,1,9.61-9.61h16.47a9.61,9.61,0,0,1,9.6,9.61Z"/><path class="cls-28" d="M2174.54,13.15a11,11,0,1,0,11,11A11,11,0,0,0,2174.54,13.15Zm0,17.84a6.87,6.87,0,1,1,6.86-6.86A6.87,6.87,0,0,1,2174.54,31Z"/><circle class="cls-29" cx="2186.34" cy="12.32" r="1.47"/><path class="cls-30" d="M2247.47,21.05c-.56-9.65-10.56-17.33-22.83-17.33-12.62,0-22.84,8.14-22.84,18.17,0,9.23,8.64,16.85,19.84,18a1.25,1.25,0,0,1,1.1,1.37l-.48,4.29a1.25,1.25,0,0,0,1.78,1.26c9.46-4.57,15.12-9.27,18.49-13.33.61-.74,2.62-3.55,3-4.29a15.21,15.21,0,0,0,1.75-5c.1-.56.15-1,.18-1.39C2247.52,22.22,2247.48,21.33,2247.47,21.05Zm-31.88,6.85h-4.67a1.16,1.16,0,0,1-1.17-1.16V17.91a1.17,1.17,0,0,1,2.34,0v7.66h3.5a1.17,1.17,0,0,1,0,2.33Zm4.62-.9a.92.92,0,0,1-.92.91h-.51a.91.91,0,0,1-.91-.91V17.66a.91.91,0,0,1,.91-.91h.51a.92.92,0,0,1,.92.91Zm10.86-.3a1.17,1.17,0,0,1-2,.9c-.07-.07-4.81-6.21-4.81-6.21v5.36a1.17,1.17,0,0,1-2.33,0V18a1.19,1.19,0,0,1,1.12-1.21,1.15,1.15,0,0,1,.92.38c.07.08,4.74,6.17,4.74,6.17v-5.4a1.15,1.15,0,0,1,1.16-1.15,1.16,1.16,0,0,1,1.17,1.16Zm7.6-5.54a1.17,1.17,0,1,1,0,2.34h-3.51v2.07h3.51a1.17,1.17,0,1,1,0,2.33H2234a1.16,1.16,0,0,1-1.17-1.16V17.91a1.16,1.16,0,0,1,1.17-1.16h4.67a1.17,1.17,0,1,1,0,2.34h-3.51v2.07Z"/></svg>