<svg xmlns="http://www.w3.org/2000/svg" width="238.189" height="49.49" viewBox="0 0 238.189 49.49">
  <path id="Path_58" data-name="Path 58" d="M2.7-1.617A3.53,3.53,0,0,0,5.145-2.4a2.778,2.778,0,0,0,.833-1.74q.1-1,.1-3.5V-28.812q0-2.058.147-3.528l-3.528.2V-34.3H25.431l.245,8.575H24.059q0-4.018-1.813-5.488A7.26,7.26,0,0,0,17.3-32.585l-3.577.1a3.431,3.431,0,0,0-2.425.784,3,3,0,0,0-.833,1.788,33.806,33.806,0,0,0-.122,3.455v8.428l8.526.049-.343-4.263h2.156v10.339H19.11a7.163,7.163,0,0,0-.417-2.793,2.311,2.311,0,0,0-1.3-1.274,6.979,6.979,0,0,0-2.45-.343q-1.078,0-1.666.049l-2.94.147v10.29a37,37,0,0,1-.147,3.871l5-.2V0H2.7Zm25.823.147a2.558,2.558,0,0,0,2.033-.711,3.251,3.251,0,0,0,.735-1.813q.123-1.1.123-3.455V-30.625a29.421,29.421,0,0,1,.147-3.185l-3.479.2v-2.058a17.763,17.763,0,0,0,4.189-.343A4.586,4.586,0,0,0,34.2-37h1.421l.049,31.8a19.85,19.85,0,0,1-.245,3.332l3.087-.147V0h-10ZM54.488.784a12.379,12.379,0,0,1-6.2-1.593,11.743,11.743,0,0,1-4.459-4.435,12.6,12.6,0,0,1-1.642-6.419A14.808,14.808,0,0,1,43.806-18.6a12.5,12.5,0,0,1,4.435-4.9,11.419,11.419,0,0,1,6.248-1.789,12.223,12.223,0,0,1,6.223,1.642,12.052,12.052,0,0,1,4.484,4.483,12.409,12.409,0,0,1,1.641,6.321,14.567,14.567,0,0,1-1.641,6.86,12.829,12.829,0,0,1-4.459,4.949A11.306,11.306,0,0,1,54.488.784Zm.392-1.96a5.653,5.653,0,0,0,5.267-2.94,14.457,14.457,0,0,0,1.691-7.3A18.145,18.145,0,0,0,60-19.894a5.9,5.9,0,0,0-5.512-3.528,6.006,6.006,0,0,0-5.464,2.989,13.787,13.787,0,0,0-1.838,7.35,19.371,19.371,0,0,0,.858,5.856,10.167,10.167,0,0,0,2.6,4.386A5.9,5.9,0,0,0,54.88-1.176ZM71-1.47a2.558,2.558,0,0,0,2.034-.711,3.251,3.251,0,0,0,.735-1.813q.122-1.1.122-3.455V-18.62a19.755,19.755,0,0,1,.2-3.185l-3.479.147v-2.009h1.519a8.206,8.206,0,0,0,2.695-.319,4.826,4.826,0,0,0,1.568-1h1.421q.2,1.911.245,4.851a11.924,11.924,0,0,1,3.5-3.577,8.23,8.23,0,0,1,4.729-1.568,3.8,3.8,0,0,1,2.45.784,2.774,2.774,0,0,1,.98,2.3,2.545,2.545,0,0,1-.612,1.568,2.079,2.079,0,0,1-1.74.784,2.208,2.208,0,0,1-1.764-.809,2.383,2.383,0,0,1-.539-1.935,5.842,5.842,0,0,0-3.749,1.421,12.257,12.257,0,0,0-3.209,3.92l.049,12.054a21,21,0,0,1-.2,3.332l3.087-.147V0H71ZM98.735.784A8.171,8.171,0,0,1,93.271-.833a5.287,5.287,0,0,1-1.886-4.214,6.1,6.1,0,0,1,2.279-4.8A14.628,14.628,0,0,1,99.4-12.765a24.591,24.591,0,0,1,6.934-.906v-3.038a10.919,10.919,0,0,0-.931-4.973q-.931-1.788-3.969-1.788a6.785,6.785,0,0,0-2.891.637,4.091,4.091,0,0,0-2.009,1.911,2.629,2.629,0,0,1,.637,1.862,2.179,2.179,0,0,1-.539,1.4A1.9,1.9,0,0,1,95.06-17a2.052,2.052,0,0,1-1.617-.662,2.521,2.521,0,0,1-.588-1.74A4.272,4.272,0,0,1,94.1-22.369,8.475,8.475,0,0,1,97.584-24.5a14.918,14.918,0,0,1,4.974-.784q4.116,0,6.076,2.181t1.911,6.884L110.5-5.194a30.242,30.242,0,0,1-.2,3.332l3.479-.2V0h-7.007q-.147-.735-.343-2.793A10.768,10.768,0,0,1,98.735.784Zm1.127-2.793a7.883,7.883,0,0,0,3.381-.711A12.089,12.089,0,0,0,106.33-4.9q-.049-.735-.049-2.5l.049-4.606a18,18,0,0,0-7.154,1.641A4.849,4.849,0,0,0,96.04-5.782a3.582,3.582,0,0,0,1.078,2.793A3.923,3.923,0,0,0,99.862-2.009ZM142.051.784a17.478,17.478,0,0,1-4.63-.637,13.23,13.23,0,0,1-4.092-1.862l.245,2.107h-2.548l-.294-10.437h1.911a8.821,8.821,0,0,0,2.891,6.493,9.922,9.922,0,0,0,6.713,2.279,7.739,7.739,0,0,0,5.023-1.642A5.452,5.452,0,0,0,149.3-7.4a5.726,5.726,0,0,0-1.151-3.6,9.982,9.982,0,0,0-2.842-2.5,50.15,50.15,0,0,0-4.581-2.328q-3.283-1.568-5.218-2.744a11.093,11.093,0,0,1-3.308-3.111,8.052,8.052,0,0,1-1.372-4.778,9.269,9.269,0,0,1,.906-3.92,7.812,7.812,0,0,1,3.136-3.332,11.165,11.165,0,0,1,5.9-1.372,18.04,18.04,0,0,1,4.434.563,11.646,11.646,0,0,1,4.091,1.935l-.2-2.107h2.5v10.78h-1.764a11,11,0,0,0-2.475-6.541,7.69,7.69,0,0,0-6.247-2.671,6.279,6.279,0,0,0-4.606,1.642,5.511,5.511,0,0,0-1.666,4.092,5.276,5.276,0,0,0,1.127,3.381,9.538,9.538,0,0,0,2.744,2.352q1.617.931,4.557,2.3a54.525,54.525,0,0,1,5.365,2.744A11.543,11.543,0,0,1,152.1-13.4a8.156,8.156,0,0,1,1.421,4.876,8.807,8.807,0,0,1-1.348,4.851,8.872,8.872,0,0,1-3.944,3.283A14.872,14.872,0,0,1,142.051.784ZM157.339-1.47a2.64,2.64,0,0,0,2.058-.711,3.188,3.188,0,0,0,.76-1.838q.122-1.127.122-3.43V-30.625a29.419,29.419,0,0,1,.147-3.185l-3.479.2v-2.058a17.763,17.763,0,0,0,4.189-.343,4.586,4.586,0,0,0,1.936-.98h1.421V-22.05a15.348,15.348,0,0,1,3.871-2.328,10.722,10.722,0,0,1,4.165-.906q4.214,0,6.125,2.646t1.96,8.33l.049,9.114a21,21,0,0,1-.2,3.332l3.087-.147V0h-10V-1.47a2.558,2.558,0,0,0,2.034-.711,3.251,3.251,0,0,0,.735-1.813q.122-1.1.122-3.455v-6.86q0-4.214-1.323-6.3a4.575,4.575,0,0,0-4.165-2.083,8.26,8.26,0,0,0-3.6.858,8.188,8.188,0,0,0-2.866,2.18V-5.194a19.848,19.848,0,0,1-.245,3.332l3.087-.147V0h-10ZM199.332.784a12.379,12.379,0,0,1-6.2-1.593,11.743,11.743,0,0,1-4.459-4.435,12.6,12.6,0,0,1-1.641-6.419A14.808,14.808,0,0,1,188.65-18.6a12.5,12.5,0,0,1,4.434-4.9,11.419,11.419,0,0,1,6.247-1.789,12.223,12.223,0,0,1,6.223,1.642,12.052,12.052,0,0,1,4.483,4.483,12.409,12.409,0,0,1,1.642,6.321,14.567,14.567,0,0,1-1.642,6.86,12.829,12.829,0,0,1-4.459,4.949A11.306,11.306,0,0,1,199.332.784Zm.392-1.96a5.653,5.653,0,0,0,5.268-2.94,14.457,14.457,0,0,0,1.691-7.3,18.145,18.145,0,0,0-1.838-8.477,5.9,5.9,0,0,0-5.512-3.528,6.006,6.006,0,0,0-5.464,2.989,13.787,13.787,0,0,0-1.837,7.35,19.371,19.371,0,0,0,.857,5.856,10.167,10.167,0,0,0,2.6,4.386A5.9,5.9,0,0,0,199.724-1.176Zm15.68,12.2a2.558,2.558,0,0,0,2.034-.71,3.06,3.06,0,0,0,.71-1.764q.1-1.053.147-3.5l.1-23.667a19.756,19.756,0,0,1,.2-3.185l-3.479.2v-2.058a16.346,16.346,0,0,0,3.969-.319,4.072,4.072,0,0,0,1.764-1h1.47q.2,2.4.2,2.646a11.5,11.5,0,0,1,3.528-2.132,11.065,11.065,0,0,1,4.067-.809,10.066,10.066,0,0,1,5.341,1.495,10.956,10.956,0,0,1,3.945,4.263,13.253,13.253,0,0,1,1.495,6.395A14.911,14.911,0,0,1,239.169-5.9,12.827,12.827,0,0,1,234.587-.98a11.613,11.613,0,0,1-6.2,1.764,10.583,10.583,0,0,1-5.88-1.617V7.3a21,21,0,0,1-.2,3.332l3.087-.147V12.5h-10Zm12.887-12.2A6.01,6.01,0,0,0,232.285-2.6a9.146,9.146,0,0,0,2.621-3.969,16.774,16.774,0,0,0,.931-5.782,13.986,13.986,0,0,0-1.886-7.472,6.17,6.17,0,0,0-5.611-3.062,6.758,6.758,0,0,0-3.136.784,9.954,9.954,0,0,0-2.646,1.96q.049.343.049,2.989l-.049,14.063A9.182,9.182,0,0,0,228.291-1.176Z" transform="translate(-2.695 36.995)" fill="#fff"/>
</svg>
