<svg id="icon-time" xmlns="http://www.w3.org/2000/svg" width="512" height="512" viewBox="0 0 512 512">
  <path id="Path_59" data-name="Path 59" d="M256,0C114.84,0,0,114.84,0,256S114.84,512,256,512,512,397.16,512,256,397.16,0,256,0Zm0,480C132.48,480,32,379.52,32,256S132.48,32,256,32,480,132.48,480,256,379.52,480,256,480Z" fill="#2f4642"/>
  <path id="Path_60" data-name="Path 60" d="M256,96h0a16,16,0,0,0-16,16V256a16,16,0,0,0,4.69,11.31L329.37,352A16,16,0,0,0,352,352h0a16,16,0,0,0,0-22.63l-75.31-75.31A16,16,0,0,1,272,242.75V112A16,16,0,0,0,256,96Z" fill="#2f4642"/>
</svg>
